<?xml version="1.0" standalone="no"?>
<!DOCTYPE svg PUBLIC "-//W3C//DTD SVG 20010904//EN"
 "http://www.w3.org/TR/2001/REC-SVG-20010904/DTD/svg10.dtd">
<svg version="1.0" xmlns="http://www.w3.org/2000/svg"
 width="360.000000pt" height="360.000000pt" viewBox="0 0 360.000000 360.000000"
 preserveAspectRatio="xMidYMid meet">
<metadata>
Created by potrace 1.14, written by Peter Selinger 2001-2017
</metadata>
<g transform="translate(0.000000,360.000000) scale(0.100000,-0.100000)"
fill="#000000" stroke="none">
<path d="M0 1800 l0 -1800 1800 0 1800 0 0 1800 0 1800 -1800 0 -1800 0 0
-1800z m2239 143 c12 -82 24 -173 28 -203 l7 -55 7 40 c4 22 17 113 30 203
l22 162 43 0 c53 0 52 5 24 -168 -11 -67 -27 -168 -35 -225 -26 -173 -16 -157
-96 -157 -38 0 -69 4 -69 10 0 11 -67 457 -76 508 l-6 32 49 0 50 0 22 -147z
m311 -128 l0 -275 -50 0 -50 0 0 275 0 275 50 0 50 0 0 -275z m290 230 l0 -45
-72 0 -73 0 0 -65 0 -65 58 0 57 0 0 -45 0 -44 -56 -3 -56 -3 -2 -73 -1 -72
73 0 72 0 0 -45 0 -45 -120 0 -120 0 0 275 0 275 120 0 120 0 0 -45z m130 -82
c26 -270 24 -265 38 -103 7 80 15 164 19 188 l5 43 47 -3 46 -3 14 -162 c8
-90 17 -163 21 -163 3 0 12 66 19 148 7 81 15 155 17 165 4 12 16 17 45 17 35
0 39 -2 39 -26 0 -30 -49 -469 -56 -501 -4 -21 -10 -23 -64 -23 -41 0 -60 4
-61 13 0 6 -6 62 -13 122 l-12 110 -7 -80 c-4 -44 -10 -99 -13 -122 l-6 -43
-64 0 c-35 0 -64 4 -64 10 0 12 -48 444 -55 498 l-6 42 49 0 49 0 13 -127z
m-1929 52 c149 -53 198 -246 91 -358 -84 -89 -212 -97 -302 -19 -186 159 -18
457 211 377z"/>
<path d="M932 1854 c-46 -32 -17 -114 40 -114 28 0 58 37 58 69 0 31 -30 61
-60 61 -9 0 -26 -7 -38 -16z m58 -29 c17 -20 5 -45 -20 -45 -11 0 -23 7 -26
15 -6 15 11 45 26 45 4 0 13 -7 20 -15z"/>
</g>
</svg>
